<?xml version="1.0" encoding="utf-8"?>
<svg width="183" height="48" viewBox="0 0 183 48" fill="none" xmlns="http://www.w3.org/2000/svg">
	<path d="M16.8448 17.9642C17.6386 18.7472 17.531 20.0227 16.8448 20.8326L4.92164 32.5136L16.8448 44.1946C17.5391 45.0127 17.6413 46.2801 16.8448 47.0631C16.016 47.8811 14.7621 47.8811 13.9333 47.0631L0.621649 33.9479C-0.207135 33.1325 -0.207135 31.8974 0.621649 31.0794L13.9333 17.9642C14.6787 17.0842 16.0618 17.1919 16.8448 17.9642ZM165.986 17.9642C166.731 17.0842 168.111 17.1919 168.897 17.9642L182.209 31.0794C182.954 31.814 182.954 33.2132 182.209 33.9479L168.897 47.0631C168.111 47.8354 166.731 47.9457 165.986 47.0631C165.09 46.3285 165.2 44.9696 165.986 44.1946L177.842 32.5136L165.986 20.8326C165.205 20.0657 165.092 18.6988 165.986 17.9642Z" fill="#1B8A6B"/>
	<path d="M33.0707 30.3959C33.0707 29.3277 33.9802 28.3482 35.0808 28.3482H51.5838C50.7523 26.2978 49.3638 24.5917 47.491 23.2921C44.0467 20.9026 39.3754 20.7869 35.7051 22.7458C32.1101 24.6644 29.8121 28.4854 29.8121 32.5136C29.8121 38.6622 34.9166 43.7157 41.1137 43.7157C44.6333 43.7157 48.0695 42.1173 50.1281 39.2758C50.5613 38.5627 50.9568 37.8469 51.3739 37.1581C51.8152 36.1463 53.0718 35.7776 54.0782 36.2028C55.1761 36.6656 55.5797 37.8065 55.1196 38.8667C54.6325 39.9592 54.011 40.9172 53.3867 41.7352C50.5128 45.5078 45.8819 47.6793 41.1137 47.6793C32.5352 47.6793 25.7892 40.8499 25.7892 32.5136C25.7892 24.1074 32.6725 17.4179 41.1137 17.4179C46.6219 17.4179 51.7829 20.2756 54.4953 25.0008C55.3968 26.5722 56.021 28.2782 56.2982 30.0542C56.4354 31.1467 55.7869 32.2365 54.6325 32.3764C51.3551 32.3764 48.0722 32.4464 44.7894 32.4464H35.0808C33.9802 32.4464 33.0707 31.4642 33.0707 30.3959ZM89.4388 22.3368C89.7859 22.7458 89.9931 23.2248 89.9931 23.771C89.9931 24.8958 89.0997 25.6842 87.983 25.6842C87.3588 25.6842 86.8744 25.4797 86.4573 25.068C85.4186 23.9083 84.1701 22.9503 82.7143 22.3368C79.9428 21.1663 76.4635 20.9779 73.7 22.2695C72.7958 22.6651 71.4666 23.6338 70.5813 23.6338C69.8117 23.6338 69.1874 23.2221 68.843 22.6489C68.3505 21.8282 68.4286 20.6819 69.4726 19.9446C70.3364 19.3769 71.1544 18.9813 72.107 18.5804C75.9307 16.9659 80.5186 17.0439 84.31 18.7176C86.2501 19.5356 87.983 20.7653 89.4388 22.3368ZM78 43.7157C79.1597 43.7157 80.01 44.5552 80.01 45.6988C80.01 46.8398 79.1597 47.6793 78 47.6793C74.004 47.6793 69.9489 46.0998 67.1127 43.3067C65.727 41.9397 64.6883 40.301 63.8541 38.4577C62.1965 34.4457 62.28 29.8712 64.2012 25.956C64.7798 24.9631 65.8131 24.5379 66.9055 25.0008C67.9469 25.4394 68.3667 26.7014 67.807 27.6647C66.5261 30.5305 66.2113 33.999 67.5998 36.8863C68.2241 38.2532 68.9856 39.413 70.0269 40.4382C72.1473 42.529 74.997 43.7157 78 43.7157ZM98.3132 35.2475C99.4757 35.2475 100.326 36.0844 100.326 37.228V45.6988C100.326 46.794 99.4299 47.6793 98.3132 47.6793C97.2504 47.6793 96.3032 46.7483 96.3032 45.6988V37.228C96.3032 36.1301 97.2019 35.2475 98.3132 35.2475ZM109.2 17.4179C112.58 17.4179 115.89 18.7499 118.282 21.1071C120.677 23.4643 122.028 26.7229 122.028 30.0542V45.6988C122.028 46.794 121.132 47.6793 120.015 47.6793C118.901 47.6793 118.005 46.794 118.005 45.6988V30.0542C118.005 25.3317 114.033 21.3789 109.2 21.3789C104.4 21.3789 100.326 25.2645 100.326 30.0542C100.326 31.1386 99.4595 32.1719 98.3132 32.1719C97.2154 32.1719 96.3032 31.0902 96.3032 30.0542V1.98047C96.3032 0.882601 97.2019 0 98.3132 0C99.4757 0 100.326 0.836857 100.326 1.98047V20.8326C102.767 18.7122 105.931 17.4179 109.2 17.4179ZM149.76 18.5804C153.516 20.2245 156.21 22.953 157.873 26.6395C160.254 32.3979 159.016 38.8345 154.544 43.2394C150.099 47.6174 143.501 48.8471 137.697 46.5169C132.03 44.0359 128.335 38.7483 128.335 32.5836C128.335 29.9869 128.959 27.5275 130.278 25.2725C130.862 24.2662 131.919 23.8545 132.982 24.4545C134.013 25.0357 134.268 26.1417 133.814 27.1857C132.842 28.8245 132.358 30.6004 132.358 32.5836C132.358 37.1204 135.138 40.9871 139.292 42.8277C143.614 44.7463 148.331 43.5354 151.703 40.4382C154.843 37.3437 156.064 32.2338 154.13 28.211C152.846 25.4017 150.984 23.5827 148.167 22.2695C145.051 20.8864 141.195 21.1232 138.251 22.8158C137.271 23.3674 136.026 22.9369 135.477 21.9951C134.906 21.0102 135.243 19.8262 136.241 19.2638C140.431 17.0762 145.368 16.8179 149.76 18.5804Z" fill="#303030"/>
</svg>